<svg width="16" height="16" viewBox="0 0 16 16" fill="none" xmlns="http://www.w3.org/2000/svg">
<g clip-path="url(#clip0_70_461)">
<path d="M14.1866 4.26666L7.8266 10.6266C7.19327 11.26 5.31325 11.5533 4.89325 11.1333C4.47325 10.7133 4.75991 8.83329 5.39325 8.19996L11.7599 1.83331C11.9169 1.66201 12.107 1.52432 12.3187 1.42852C12.5304 1.33272 12.7593 1.28079 12.9917 1.27589C13.2239 1.27101 13.4549 1.31323 13.6704 1.40004C13.8859 1.48685 14.0817 1.61645 14.2457 1.78098C14.4098 1.94551 14.5389 2.14158 14.6251 2.35735C14.7113 2.57313 14.7529 2.80413 14.7474 3.03643C14.7419 3.26873 14.6893 3.49753 14.5929 3.70896C14.4965 3.92039 14.3583 4.11012 14.1866 4.26666Z" stroke="#00B1A7" stroke-width="2" stroke-linecap="round" stroke-linejoin="round"/>
<path d="M7.33337 2.66663H4.00004C3.29279 2.66663 2.61456 2.94757 2.11446 3.44767C1.61437 3.94777 1.33337 4.62605 1.33337 5.33329V12C1.33337 12.7072 1.61437 13.3855 2.11446 13.8856C2.61456 14.3857 3.29279 14.6666 4.00004 14.6666H11.3334C12.8067 14.6666 13.3334 13.4666 13.3334 12V8.66663" stroke="#00B1A7" stroke-width="2" stroke-linecap="round" stroke-linejoin="round"/>
</g>
<defs>
<clipPath id="clip0_70_461">
<rect width="16" height="16" fill="white"/>
</clipPath>
</defs>
</svg>
