<svg width="20" height="20" viewBox="0 0 20 20" fill="none" xmlns="http://www.w3.org/2000/svg">
<path d="M4.16667 8.14789V13.5C4.16667 14.9002 4.16667 15.6003 4.43915 16.135C4.67883 16.6054 5.06128 16.9878 5.53169 17.2275C6.06647 17.5 6.76653 17.5 8.16667 17.5H11.8333C13.2335 17.5 13.9335 17.5 14.4683 17.2275C14.9387 16.9878 15.3212 16.6054 15.5608 16.135C15.8333 15.6003 15.8333 14.9002 15.8333 13.5V4.16669M17.5 10L12.9723 4.97C11.9426 3.82603 11.4278 3.25404 10.8213 3.04288C10.2888 2.85741 9.70917 2.85745 9.17658 3.043C8.57025 3.25425 8.05551 3.82632 7.02595 4.97044L2.5 10" stroke="#007D76" stroke-width="2" stroke-linecap="round" stroke-linejoin="round"/>
</svg>
