<svg width="56" height="56" viewBox="0 0 56 56" fill="none" xmlns="http://www.w3.org/2000/svg">
<path d="M28 37.3336V30.3336M28 30.3336V23.3336M28 30.3336H21M28 30.3336H35M9.33331 39.2005V26.7218C9.33331 25.4751 9.33331 24.8514 9.48491 24.2711C9.61926 23.7571 9.84035 23.2705 10.1388 22.8308C10.4756 22.3347 10.9448 21.9233 11.8831 21.1023L23.0868 11.299C24.8262 9.77699 25.696 9.01592 26.6756 8.72624C27.5394 8.47081 28.4601 8.47081 29.3239 8.72624C30.3041 9.01613 31.1752 9.77792 32.9172 11.3023L44.1172 21.1023C45.0557 21.9233 45.5238 22.3347 45.8607 22.8308C46.1591 23.2705 46.3808 23.7571 46.5152 24.2711C46.6667 24.8512 46.6666 25.4763 46.6666 26.7218V39.2086C46.6666 41.8171 46.6666 43.1226 46.1584 44.1201C45.7111 44.9981 44.9964 45.7114 44.1184 46.1587C43.1211 46.6669 41.8168 46.6669 39.2084 46.6669H16.7928C14.1843 46.6669 12.8781 46.6669 11.8808 46.1587C11.0027 45.7114 10.2893 44.9981 9.84196 44.1201C9.33331 43.1216 9.33331 41.814 9.33331 39.2005Z" stroke="#007D76" stroke-width="5" stroke-linecap="round" stroke-linejoin="round"/>
</svg>
