<svg width="15" height="15" viewBox="0 0 15 15" fill="none" xmlns="http://www.w3.org/2000/svg">
<path fill-rule="evenodd" clip-rule="evenodd" d="M7.5 4.21875C6.72328 4.21875 6.09375 4.84828 6.09375 5.625C6.09375 6.40172 6.72328 7.03125 7.5 7.03125C8.27672 7.03125 8.90625 6.40172 8.90625 5.625C8.90625 4.84828 8.27672 4.21875 7.5 4.21875ZM7.5 7.96875C6.20578 7.96875 5.15625 6.91969 5.15625 5.625C5.15625 4.33031 6.20578 3.28125 7.5 3.28125C8.79422 3.28125 9.84375 4.33031 9.84375 5.625C9.84375 6.91969 8.79422 7.96875 7.5 7.96875ZM7.5 0C4.39359 0 1.875 2.51859 1.875 5.625C1.875 7.97719 6.56484 15.0052 7.5 15C8.42063 15.0052 13.125 7.94531 13.125 5.625C13.125 2.51859 10.6064 0 7.5 0Z" fill="#007D76"/>
</svg>
