<svg width="92" height="92" viewBox="0 0 92 92" fill="none" xmlns="http://www.w3.org/2000/svg">
<path d="M61.1028 52.5C55.0388 58.0412 53.9417 62.8852 54.6028 73.5C62.1363 62.5129 67.2533 58.4271 78.1028 55C67.0116 59.7024 56.6443 77.8845 55.6028 80.5C54.5614 83.1155 54.3811 85.019 54.6028 89C54.8246 92.981 56.6029 91.5 56.6028 91C56.6028 90.5 57.1968 82.2289 60.1028 78.5C68.2607 79.0193 72.6497 77.5785 80.1028 72C86.6121 67.4378 89.6029 59.5 90.6029 55C91.6028 50.5 92.6467 45.0934 90.6029 39C89.0762 41.2649 87.5895 42.2185 83.1028 43C72.6108 44.5602 67.5029 46.3108 61.1028 52.5Z" fill="#00B1A7"/>
<path d="M77.1028 78C75.328 79.2312 74.1407 79.7902 71.6028 80.5C77.7814 81.3248 80.9116 82.1374 86.1028 84C83.4738 81.4233 81.5834 80.0882 77.1028 78Z" fill="#00B1A7"/>
<path d="M45.1028 0L1.10278 42L6.10278 47L45.1028 10L77.1028 40.5L84.1028 37.5L74.1028 28V10H63.6028V18L45.1028 0Z" fill="#00B1A7"/>
<path d="M19.6028 33H12.6028V78H19.6028V33Z" fill="#00B1A7"/>
<path d="M19.6028 73.5C10.1909 76.5654 2.15565 82.3549 0.102794 84C-1.53106 85.3093 16.5981 79.8877 34.1028 78.5455C38.5918 78.2013 45.0398 78.6253 49.1028 79C42.1361 71.3384 40.7322 66.9407 40.6028 59C43.1652 67.5836 45.5838 71.4964 52.6028 76C51.3101 68.6565 51.3881 64.7343 52.6028 58C54.1682 51.8998 29.2414 44.0389 32.1028 47.5C34.9642 50.9611 27.8182 61.0539 34.6028 72.5C28.7033 72.3731 25.4119 72.5177 19.6028 73.5Z" fill="#00B1A7"/>
</svg>
