<svg width="16" height="16" viewBox="0 0 16 16" fill="none" xmlns="http://www.w3.org/2000/svg">
<path d="M2.50124 4.61717C2.48644 4.34143 2.25091 4.12989 1.97516 4.14469C1.69942 4.15949 1.48788 4.39503 1.50268 4.67077L2.50124 4.61717ZM3.14514 2.06143C2.95497 2.26165 2.96311 2.57813 3.16333 2.76831C3.36355 2.95848 3.68002 2.95034 3.8702 2.75012L3.14514 2.06143ZM7.10941 13.2082C7.34321 13.3551 7.65188 13.2847 7.79881 13.0509C7.94574 12.8171 7.87528 12.5085 7.64148 12.3615L7.10941 13.2082ZM10.0753 13.3723C9.80508 13.3157 9.54008 13.4889 9.48348 13.7592C9.42688 14.0295 9.60008 14.2945 9.87041 14.3511L10.0753 13.3723ZM10.4297 10.3625L10.7333 10.0428L10.0083 9.35415L9.70468 9.67381L10.4297 10.3625ZM11.7325 9.90821L13.0061 10.6413L13.505 9.77468L12.2313 9.04154L11.7325 9.90821ZM13.2519 12.1613L12.3049 13.1583L13.03 13.847L13.977 12.85L13.2519 12.1613ZM5.57281 10.6391C2.98872 7.91855 2.55527 5.62372 2.50124 4.61717L1.50268 4.67077C1.56885 5.90359 2.0923 8.42688 4.84775 11.3278L5.57281 10.6391ZM6.4897 6.21441L6.68094 6.0131L5.95586 5.32441L5.76464 5.52572L6.4897 6.21441ZM6.83114 3.50676L5.99047 2.31777L5.17394 2.89508L6.0146 4.08407L6.83114 3.50676ZM6.12718 5.87006C5.76464 5.52572 5.76418 5.52621 5.76372 5.52669C5.76356 5.52687 5.7631 5.52736 5.76278 5.52769C5.76214 5.52837 5.7615 5.52906 5.76084 5.52977C5.75953 5.53118 5.75817 5.53265 5.75678 5.53419C5.75398 5.53727 5.75101 5.54059 5.74789 5.54418C5.74166 5.55135 5.7348 5.55955 5.72748 5.56881C5.71282 5.58733 5.69624 5.61009 5.67885 5.63727C5.64398 5.69177 5.60615 5.76355 5.57412 5.85357C5.50898 6.03661 5.47349 6.27901 5.51784 6.58173C5.60498 7.17648 5.99469 7.97628 7.01294 9.04828L7.73801 8.35961C6.78621 7.35754 6.55178 6.74041 6.50728 6.43675C6.48582 6.29025 6.50762 6.21306 6.51625 6.18882C6.5211 6.17519 6.52427 6.17141 6.52117 6.17626C6.51966 6.17861 6.51666 6.18302 6.51162 6.18939C6.5091 6.19258 6.50606 6.19626 6.50244 6.20043C6.50062 6.20251 6.49866 6.20472 6.49654 6.20705C6.49548 6.20822 6.49438 6.20941 6.49324 6.21064C6.49268 6.21125 6.4921 6.21187 6.4915 6.2125C6.49121 6.21281 6.49076 6.21329 6.49061 6.21345C6.49016 6.21393 6.4897 6.21441 6.12718 5.87006ZM7.01294 9.04828C8.02814 10.1171 8.79494 10.5373 9.37994 10.6323C9.68008 10.6811 9.92308 10.6421 10.1071 10.5696C10.197 10.5341 10.2682 10.4925 10.3216 10.4546C10.3482 10.4357 10.3704 10.4177 10.3883 10.4021C10.3973 10.3942 10.4052 10.3869 10.4121 10.3802C10.4155 10.3769 10.4187 10.3737 10.4216 10.3708C10.4231 10.3693 10.4245 10.3679 10.4259 10.3665C10.4265 10.3658 10.4272 10.3651 10.4278 10.3645C10.4281 10.3641 10.4286 10.3636 10.4288 10.3635C10.4293 10.3629 10.4297 10.3625 10.0672 10.0181C9.70468 9.67381 9.70514 9.67334 9.70554 9.67288C9.70574 9.67268 9.70614 9.67221 9.70648 9.67188C9.70708 9.67128 9.70768 9.67068 9.70821 9.67008C9.70941 9.66888 9.71054 9.66768 9.71168 9.66654C9.71388 9.66434 9.71601 9.66221 9.71801 9.66028C9.72208 9.65641 9.72568 9.65308 9.72888 9.65028C9.73528 9.64468 9.74001 9.64108 9.74308 9.63894C9.74928 9.63448 9.74868 9.63601 9.74014 9.63934C9.72728 9.64441 9.66674 9.66581 9.54021 9.64528C9.27188 9.60168 8.69274 9.36481 7.73801 8.35961L7.01294 9.04828ZM5.99047 2.31777C5.31474 1.36205 3.9626 1.20081 3.14514 2.06143L3.8702 2.75012C4.21876 2.38315 4.83238 2.41198 5.17394 2.89508L5.99047 2.31777ZM12.3049 13.1583C12.1189 13.3542 11.9243 13.4591 11.7351 13.4778L11.8333 14.473C12.3313 14.4238 12.7344 14.1582 13.03 13.847L12.3049 13.1583ZM6.68094 6.0131C7.32594 5.33398 7.37161 4.2712 6.83114 3.50676L6.0146 4.08407C6.29604 4.48211 6.25288 5.0117 5.95586 5.32441L6.68094 6.0131ZM13.0061 10.6413C13.5534 10.9563 13.6605 11.7312 13.2519 12.1613L13.977 12.85C14.847 11.9341 14.5936 10.4013 13.505 9.77468L13.0061 10.6413ZM10.7333 10.0428C10.9903 9.77228 11.3907 9.71148 11.7325 9.90821L12.2313 9.04154C11.499 8.62001 10.5908 8.74088 10.0083 9.35415L10.7333 10.0428ZM7.64148 12.3615C6.98568 11.9494 6.28767 11.3917 5.57281 10.6391L4.84775 11.3278C5.6171 12.1378 6.37932 12.7494 7.10941 13.2082L7.64148 12.3615ZM11.7351 13.4778C11.3707 13.5138 10.7941 13.5228 10.0753 13.3723L9.87041 14.3511C10.7027 14.5253 11.3828 14.5175 11.8333 14.473L11.7351 13.4778Z" fill="#4A5568"/>
</svg>
