<svg width="16" height="16" viewBox="0 0 16 16" fill="none" xmlns="http://www.w3.org/2000/svg">
<path d="M5.66663 8.33337L6.99996 9.66671L10.3333 6.33337" stroke="#EAFBF1" stroke-width="2" stroke-linecap="round" stroke-linejoin="round"/>
<path d="M2.01938 8.71836C1.80213 8.26383 1.80213 7.73543 2.01938 7.28089C2.11331 7.08436 2.27349 6.89643 2.59384 6.52052C2.72134 6.37091 2.78509 6.2961 2.83864 6.21621C2.96139 6.03306 3.04659 5.82739 3.08929 5.61109C3.10792 5.51673 3.11573 5.41875 3.13137 5.2228C3.17066 4.73047 3.19031 4.4843 3.26285 4.27892C3.43063 3.8039 3.80427 3.43027 4.27929 3.26248C4.48466 3.18994 4.73083 3.17029 5.22317 3.13101C5.41912 3.11537 5.51709 3.10755 5.61145 3.08892C5.82775 3.04622 6.03343 2.96103 6.21657 2.83827C6.29647 2.78473 6.37127 2.72097 6.52089 2.59347C6.8968 2.27312 7.08473 2.11295 7.28127 2.01902C7.7358 1.80177 8.2642 1.80177 8.71873 2.01902C8.91527 2.11295 9.1032 2.27312 9.47913 2.59347C9.62873 2.72097 9.70353 2.78473 9.78347 2.83827C9.9666 2.96103 10.1723 3.04622 10.3885 3.08892C10.4829 3.10755 10.5809 3.11537 10.7769 3.13101C11.2692 3.17029 11.5153 3.18994 11.7207 3.26248C12.1957 3.43027 12.5694 3.8039 12.7372 4.27892M3.26285 11.7204C3.43063 12.1954 3.80427 12.569 4.27929 12.7368C4.48466 12.8094 4.73083 12.829 5.22317 12.8683C5.41912 12.8839 5.51709 12.8918 5.61145 12.9104C5.82775 12.9531 6.03343 13.0382 6.21657 13.161C6.29646 13.2146 6.37127 13.2783 6.52089 13.4058C6.8968 13.7262 7.08473 13.8864 7.28127 13.9803C7.7358 14.1975 8.2642 14.1975 8.71873 13.9803C8.91527 13.8864 9.1032 13.7262 9.47913 13.4058C9.62873 13.2783 9.70353 13.2146 9.78347 13.161C9.9666 13.0382 10.1723 12.9531 10.3885 12.9104C10.4829 12.8918 10.5809 12.8839 10.7769 12.8683C11.2692 12.829 11.5153 12.8094 11.7207 12.7368C12.1957 12.569 12.5694 12.1954 12.7372 11.7204C12.8097 11.515 12.8293 11.2688 12.8687 10.7765C12.8843 10.5806 12.8921 10.4826 12.9107 10.3882C12.9534 10.1719 13.0386 9.96623 13.1614 9.78309C13.2149 9.70316 13.2787 9.62836 13.4062 9.47876C13.7265 9.10283 13.8867 8.91489 13.9807 8.71836C14.1979 8.26383 14.1979 7.73543 13.9807 7.28089" stroke="#EAFBF1" stroke-width="2" stroke-linecap="round"/>
</svg>
